# xmcd
#
# Track frame offsets: 
#        150
#        10333
#        22244
#        31897
#        43989
#        55660
#        65006
#        77540
#        90407
#        99383
#        110036
#        121909
#        132324
#        141374
#        151237
#        161462
#        171343
#        182073
#        192602
#        202822
#
# Disc length: 2840 seconds
#
# Revision: 0
# Processed by: cddbd v1.5.2PL0 Copyright (c) Steve Scherf et al.
# Submitted via: ExactAudioCopyFreeDBPlugin 1.0
#
DISCID=130b1614
DTITLE=Wanda Jackson - Wanda Jackson - The Essential Recordings 2
DYEAR=2016
DGENRE=Rockabilly
TTITLE0=Fujiyama Mama
TTITLE1=Right or wrong (I'll be with you)
TTITLE2=Funnel of love
TTITLE3=I'd be ashamed
TTITLE4=In the middle of a heartache
TTITLE5=There's a party goin' on
TTITLE6=Kansas City
TTITLE7=Fallin'
TTITLE8=Hard headed women
TTITLE9=Tongue tied
TTITLE10=Sparkling brown eyes
TTITLE11=Lost weekend
TTITLE12=Man, we had a party
TTITLE13=Sticks and stones
TTITLE14=Stupid Cupid
TTITLE15=Slippin' and slidin'
TTITLE16=Who shot Sam?
TTITLE17=Wasted
TTITLE18=I don't wanna go
TTITLE19=A little bitty tear
EXTD=
EXTT0=
EXTT1=
EXTT2=
EXTT3=
EXTT4=
EXTT5=
EXTT6=
EXTT7=
EXTT8=
EXTT9=
EXTT10=
EXTT11=
EXTT12=
EXTT13=
EXTT14=
EXTT15=
EXTT16=
EXTT17=
EXTT18=
EXTT19=
PLAYORDER=
